<svg width="44" height="44" viewBox="0 0 44 44" fill="none" xmlns="http://www.w3.org/2000/svg">
<path d="M22.3178 32.4786C19.5733 32.5135 16.9271 31.4304 14.9587 29.4665C12.9903 27.5026 11.86 24.8179 11.8154 22.0003C11.86 19.1827 12.9903 16.498 14.9587 14.5341C16.9271 12.5703 19.5733 11.4872 22.3178 11.5221C25.0624 11.4872 27.7086 12.5703 29.677 14.5341C31.6454 16.498 32.7756 19.1827 32.8202 22.0003C32.7756 24.8179 31.6454 27.5026 29.677 29.4665C27.7086 31.4304 25.0624 32.5135 22.3178 32.4786ZM22.3178 13.5655C20.1149 13.5645 17.9982 14.4448 16.4169 16.0195C14.8357 17.5943 13.9142 19.7396 13.8482 22.0003C13.9142 24.261 14.8357 26.4064 16.4169 27.9811C17.9982 29.5559 20.1149 30.4361 22.3178 30.4351C24.5208 30.4361 26.6375 29.5559 28.2187 27.9811C29.8 26.4064 30.7214 24.261 30.7875 22.0003C30.7214 19.7396 29.8 17.5943 28.2187 16.0195C26.6375 14.4448 24.5208 13.5645 22.3178 13.5655Z" fill="white"/>
<path d="M4.23484 22.1305C1.90568 22.1305 0 22.1305 0 22.1305V20.8262C0 20.8262 1.90568 20.8262 4.23484 20.8262C6.564 20.8262 8.46968 20.8262 8.46968 20.8262V22.1305C8.46968 22.1305 6.564 22.1305 4.23484 22.1305Z" fill="white"/>
<path d="M39.7656 22.1305C37.4364 22.1305 35.5308 22.1305 35.5308 22.1305V20.8262C35.5308 20.8262 37.4364 20.8262 39.7656 20.8262C42.0948 20.8262 44.0004 20.8262 44.0004 20.8262V22.1305C44.0004 22.1305 42.0948 22.1305 39.7656 22.1305Z" fill="white"/>
<path d="M22.9946 4.34783C22.9946 6.73913 22.9946 8.69565 22.9946 8.69565H21.7241C21.7241 8.69565 21.7241 6.73913 21.7241 4.34783C21.7241 1.95652 21.7241 0 21.7241 0H22.9946C23.0736 1.44814 23.0736 2.89969 22.9946 4.34783Z" fill="white"/>
<path d="M22.9946 39.6525C22.9946 42.0438 22.9946 44.0003 22.9946 44.0003H21.7241C21.7241 44.0003 21.7241 42.0438 21.7241 39.6525C21.7241 37.2612 21.7241 35.3047 21.7241 35.3047H22.9946C23.0736 36.7528 23.0736 38.2044 22.9946 39.6525Z" fill="white"/>
<path d="M35.4452 9.21711C33.7936 10.9128 32.4385 12.2606 32.3962 12.2171L31.5068 11.3041C31.5068 11.3041 32.7773 9.86928 34.4289 8.17363C36.0805 6.47798 37.4356 5.13015 37.478 5.17363L38.3673 6.08667C37.4556 7.18962 36.4798 8.235 35.4452 9.21711Z" fill="white"/>
<path d="M9.95159 35.3476C8.3 37.0433 6.94485 38.3911 6.9025 38.3476L6.01318 37.4346C6.01318 37.4346 7.28364 35.9998 8.93522 34.3041C10.5868 32.6085 11.942 31.2606 11.9843 31.3041L12.7042 32.2172C12.7042 32.2172 11.6032 33.652 9.95159 35.3476Z" fill="white"/>
<path d="M35.7429 35.8263C34.0913 34.1307 32.7785 32.7394 32.8208 32.6959L33.8795 31.7828C33.8795 31.7828 35.277 33.0872 36.9286 34.7828C38.5802 36.4785 39.893 37.8698 39.8507 37.9133L38.9613 38.8263C38.9613 38.8263 37.3944 37.522 35.7429 35.8263Z" fill="white"/>
<path d="M8.93622 10.0431C7.28463 8.34746 5.97183 6.95616 6.01418 6.91268L6.9035 5.99963C6.9035 5.99963 8.30099 7.30398 9.95258 8.99963C11.6042 10.6953 12.917 12.0866 12.8746 12.1301L11.9853 13.0431L8.93622 10.0431Z" fill="white"/>
</svg>
