<svg width="28" height="65" viewBox="0 0 28 65" fill="none" xmlns="http://www.w3.org/2000/svg">
<path d="M10.8113 46.8138C10.0825 46.8138 9.4751 45.5516 9.4751 43.9453V2.86849C9.4751 1.26214 10.0825 0 10.8113 0C11.5402 0 12.1475 1.26214 12.1475 2.86849V43.9453C12.1475 45.5516 11.5402 46.8138 10.8113 46.8138Z" fill="white"/>
<path d="M10.8116 65.0003C8.71751 64.9664 6.68069 64.3489 4.95688 63.2253C3.23307 62.1017 1.89912 60.5221 1.1225 58.6849C0.345877 56.8476 0.161209 54.8346 0.591681 52.8986C1.02215 50.9625 2.04857 49.1898 3.54207 47.8029C5.03558 46.4159 6.92958 45.4767 8.98629 45.1031C11.043 44.7294 13.1707 44.938 15.1024 45.7027C17.034 46.4674 18.6834 47.7541 19.8434 49.4011C21.0035 51.0482 21.6226 52.9823 21.6229 54.9606C21.5908 57.6438 20.4357 60.2059 18.4099 62.0871C16.3841 63.9683 13.6524 65.0156 10.8116 65.0003ZM10.8116 46.8141C9.11117 46.8367 7.45577 47.3337 6.05351 48.2425C4.65125 49.1512 3.56473 50.4313 2.93053 51.9218C2.29633 53.4122 2.14277 55.0464 2.48915 56.6191C2.83553 58.1917 3.66638 59.6325 4.87727 60.7604C6.08816 61.8882 7.62502 62.6528 9.29466 62.958C10.9643 63.2631 12.6922 63.0952 14.2611 62.4754C15.83 61.8556 17.1699 60.8115 18.1123 59.4744C19.0547 58.1373 19.5576 56.5669 19.5578 54.9606C19.5259 52.7895 18.5903 50.7176 16.9535 49.1931C15.3168 47.6685 13.1103 46.8139 10.8116 46.8141Z" fill="white"/>
<path d="M21.9253 8.37551C18.5848 8.37551 15.8516 8.37551 15.8516 8.37551V6.65442C15.8516 6.65442 18.5848 6.65442 21.9253 6.65442C25.2659 6.65442 27.9991 6.65442 27.9991 6.65442V8.37551C27.9991 8.37551 25.2659 8.37551 21.9253 8.37551Z" fill="white"/>
<path d="M21.9253 20.1366C18.5848 20.1366 15.8516 20.1366 15.8516 20.1366V18.4155C15.8516 18.4155 18.5848 18.4155 21.9253 18.4155C25.2659 18.4155 27.9991 18.4155 27.9991 18.4155V20.1366C27.9991 20.1366 25.2659 20.1366 21.9253 20.1366Z" fill="white"/>
<path d="M21.9253 31.8402C18.5848 31.8402 15.8516 31.8402 15.8516 31.8402V30.1191C15.8516 30.1191 18.5848 30.1191 21.9253 30.1191C25.2659 30.1191 27.9991 30.1191 27.9991 30.1191V31.8402C27.9991 31.8402 25.2659 31.8402 21.9253 31.8402Z" fill="white"/>
<path d="M20.1032 24.1526C18.687 24.226 17.2677 24.226 15.8516 24.1526V22.4315C17.2677 22.3581 18.687 22.3581 20.1032 22.4315C21.5193 22.3581 22.9387 22.3581 24.3548 22.4315V24.1526C22.9387 24.2277 21.5193 24.2277 20.1032 24.1526Z" fill="white"/>
<path d="M20.1032 27.996C18.687 28.0694 17.2677 28.0694 15.8516 27.996V26.2749C17.2677 26.2015 18.687 26.2015 20.1032 26.2749C21.5193 26.2015 22.9387 26.2015 24.3548 26.2749V27.996C22.9387 28.0711 21.5193 28.0711 20.1032 27.996Z" fill="white"/>
<path d="M20.1032 16.2361C18.687 16.3095 17.2677 16.3095 15.8516 16.2361V14.515C17.2677 14.4416 18.687 14.4416 20.1032 14.515C21.5193 14.4416 22.9387 14.4416 24.3548 14.515V16.2361C22.9387 16.3112 21.5193 16.3112 20.1032 16.2361Z" fill="white"/>
<path d="M20.1032 12.3342C18.687 12.4076 17.2677 12.4076 15.8516 12.3342V10.6131C17.2677 10.5398 18.687 10.5398 20.1032 10.6131C21.5193 10.5398 22.9387 10.5398 24.3548 10.6131V12.3342C22.9387 12.4094 21.5193 12.4094 20.1032 12.3342Z" fill="white"/>
<path d="M20.1032 35.7988C18.687 35.8722 17.2677 35.8722 15.8516 35.7988V34.0777C17.2677 34.0044 18.687 34.0044 20.1032 34.0777C21.5193 34.0044 22.9387 34.0044 24.3548 34.0777V35.7988C22.9387 35.874 21.5193 35.874 20.1032 35.7988Z" fill="white"/>
<path d="M20.1032 39.5849C18.687 39.6582 17.2677 39.6582 15.8516 39.5849V37.8637C17.2677 37.7904 18.687 37.7904 20.1032 37.8637C21.5193 37.7904 22.9387 37.7904 24.3548 37.8637V39.5849C22.9387 39.66 21.5193 39.66 20.1032 39.5849Z" fill="white"/>
</svg>
