<svg width="52" height="33" viewBox="0 0 52 33" fill="none" xmlns="http://www.w3.org/2000/svg">
<path d="M42.9736 26.6372C42.8582 26.6372 42.744 26.6149 42.6374 26.5718C42.5308 26.5286 42.4339 26.4654 42.3523 26.3856C42.2707 26.3059 42.206 26.2112 42.1619 26.107C42.1177 26.0028 42.095 25.8912 42.095 25.7784C42.2025 23.6909 41.8747 21.6038 41.1315 19.6439C40.3883 17.684 39.2451 15.8923 37.7715 14.3776C36.2978 12.8629 34.5245 11.6569 32.5592 10.8328C30.5939 10.0087 28.4777 9.58375 26.3392 9.58375C24.2007 9.58375 22.0845 10.0087 20.1192 10.8328C18.154 11.6569 16.3806 12.8629 14.907 14.3776C13.4334 15.8923 12.2902 17.684 11.5469 19.6439C10.8037 21.6038 10.4759 23.6909 10.5835 25.7784C10.5835 26.0061 10.4909 26.2246 10.3261 26.3856C10.1613 26.5467 9.93785 26.6372 9.70482 26.6372C9.47179 26.6372 9.2483 26.5467 9.08352 26.3856C8.91874 26.2246 8.82617 26.0061 8.82617 25.7784C8.82617 21.2438 10.6692 16.895 13.9498 13.6886C17.2304 10.4821 21.6798 8.68079 26.3193 8.68079C30.9587 8.68079 35.4081 10.4821 38.6887 13.6886C41.9693 16.895 43.8123 21.2438 43.8123 25.7784C43.8177 25.8893 43.8001 26.0001 43.7603 26.1041C43.7206 26.2081 43.6597 26.3031 43.5813 26.3834C43.5028 26.4637 43.4085 26.5276 43.3041 26.5712C43.1996 26.6149 43.0872 26.6373 42.9736 26.6372Z" fill="white"/>
<path d="M51.1613 25.2707C50.9283 25.2707 50.7048 25.1802 50.54 25.0191C50.3752 24.8581 50.2826 24.6397 50.2826 24.4119C50.2826 18.1173 47.7243 12.0806 43.1704 7.62968C38.6165 3.17876 32.4402 0.678256 26 0.678256C19.5598 0.678256 13.3835 3.17876 8.82958 7.62968C4.2757 12.0806 1.71736 18.1173 1.71736 24.4119C1.71759 24.6331 1.63052 24.8458 1.47429 25.0058C1.31805 25.1657 1.10469 25.2606 0.878648 25.2707C0.645616 25.2707 0.422129 25.1802 0.25735 25.0191C0.0925716 24.8581 0 24.6397 0 24.4119C0.368243 17.9259 3.26381 11.824 8.09186 7.35968C12.9199 2.89539 19.3138 0.407715 25.9601 0.407715C32.6063 0.407715 39.0002 2.89539 43.8283 7.35968C48.6563 11.824 51.5519 17.9259 51.9201 24.4119C51.9314 24.6231 51.8587 24.8303 51.7173 24.9904C51.5759 25.1504 51.3767 25.2508 51.1613 25.2707Z" fill="white"/>
<path d="M26.3201 33C24.4454 32.9769 22.6196 32.4125 21.0723 31.3777C19.525 30.3429 18.3253 28.884 17.6242 27.1845C16.9231 25.4849 16.7519 23.6207 17.1321 21.8263C17.5122 20.0319 18.4269 18.3875 19.7609 17.0999C21.0949 15.8123 22.7887 14.939 24.6292 14.5899C26.4697 14.2409 28.3747 14.4315 30.1046 15.138C31.8345 15.8445 33.3121 17.0352 34.3513 18.5604C35.3906 20.0856 35.9452 21.8771 35.9453 23.7095C35.9454 24.9395 35.6956 26.1572 35.2105 27.2921C34.7253 28.427 34.0144 29.4564 33.119 30.3206C32.2236 31.1849 31.1616 31.8668 29.9945 32.3267C28.8274 32.7866 27.5784 33.0155 26.3201 33ZM26.3201 16.1366C24.7781 16.1367 23.2708 16.5841 21.9892 17.4222C20.7076 18.2604 19.7095 19.4515 19.1212 20.8447C18.5329 22.2379 18.3811 23.7704 18.6848 25.248C18.9886 26.7256 19.7343 28.0819 20.8274 29.1448C21.9206 30.2078 23.312 30.9297 24.8254 31.219C26.3387 31.5083 27.9059 31.3519 29.3283 30.7698C30.7506 30.1877 31.9642 29.206 32.8151 27.9491C33.666 26.6922 34.1161 25.2167 34.1081 23.7095C34.1082 22.7118 33.9064 21.7238 33.5146 20.8025C33.1227 19.8811 32.5484 19.0446 31.8247 18.3408C31.101 17.6371 30.2421 17.0801 29.2975 16.7018C28.3528 16.3236 27.341 16.1315 26.3201 16.1366Z" fill="white"/>
</svg>
